<mxfile host="Electron" agent="Mozilla/5.0 (Windows NT 10.0; Win64; x64) AppleWebKit/537.36 (KHTML, like Gecko) draw.io/26.0.16 Chrome/132.0.6834.196 Electron/34.2.0 Safari/537.36" version="26.0.16">
  <diagram name="Page-1" id="poSnfHYxSJGUhz6ABWdH">
    <mxGraphModel dx="2071" dy="823" grid="1" gridSize="10" guides="1" tooltips="1" connect="1" arrows="1" fold="1" page="1" pageScale="1" pageWidth="850" pageHeight="1100" math="0" shadow="0">
      <root>
        <mxCell id="0" />
        <mxCell id="1" parent="0" />
        <mxCell id="fECDeBfF2wD0injgNPm9-39" style="edgeStyle=orthogonalEdgeStyle;rounded=0;orthogonalLoop=1;jettySize=auto;html=1;exitX=0.25;exitY=0;exitDx=0;exitDy=0;entryX=0.5;entryY=1;entryDx=0;entryDy=0;endArrow=none;startFill=0;fillColor=#d5e8d4;strokeColor=light-dark(#1c1d1b, #446e2c);" parent="1" source="fECDeBfF2wD0injgNPm9-2" target="fECDeBfF2wD0injgNPm9-36" edge="1">
          <mxGeometry relative="1" as="geometry" />
        </mxCell>
        <mxCell id="fECDeBfF2wD0injgNPm9-40" style="edgeStyle=orthogonalEdgeStyle;rounded=0;orthogonalLoop=1;jettySize=auto;html=1;exitX=0.5;exitY=0;exitDx=0;exitDy=0;endArrow=none;startFill=0;" parent="1" source="fECDeBfF2wD0injgNPm9-2" target="fECDeBfF2wD0injgNPm9-35" edge="1">
          <mxGeometry relative="1" as="geometry" />
        </mxCell>
        <mxCell id="fECDeBfF2wD0injgNPm9-42" style="edgeStyle=orthogonalEdgeStyle;rounded=0;orthogonalLoop=1;jettySize=auto;html=1;entryX=0;entryY=1;entryDx=0;entryDy=0;endArrow=none;endFill=1;fillColor=#d5e8d4;strokeColor=light-dark(#191b18, #446e2c);startFill=0;" parent="1" target="fECDeBfF2wD0injgNPm9-37" edge="1">
          <mxGeometry relative="1" as="geometry">
            <mxPoint x="-120" y="225" as="sourcePoint" />
          </mxGeometry>
        </mxCell>
        <mxCell id="fECDeBfF2wD0injgNPm9-98" value="1" style="edgeStyle=orthogonalEdgeStyle;rounded=0;orthogonalLoop=1;jettySize=auto;html=1;exitX=0.5;exitY=1;exitDx=0;exitDy=0;entryX=0.5;entryY=0;entryDx=0;entryDy=0;" parent="1" source="fECDeBfF2wD0injgNPm9-2" target="fECDeBfF2wD0injgNPm9-97" edge="1">
          <mxGeometry relative="1" as="geometry" />
        </mxCell>
        <mxCell id="fECDeBfF2wD0injgNPm9-2" value="Sellers" style="rounded=0;whiteSpace=wrap;html=1;" parent="1" vertex="1">
          <mxGeometry x="-240" y="210" width="120" height="60" as="geometry" />
        </mxCell>
        <mxCell id="fECDeBfF2wD0injgNPm9-49" style="edgeStyle=orthogonalEdgeStyle;rounded=0;orthogonalLoop=1;jettySize=auto;html=1;exitX=0.25;exitY=0;exitDx=0;exitDy=0;strokeColor=light-dark(#2c2a2a, #446e2c);endArrow=none;startFill=0;" parent="1" source="fECDeBfF2wD0injgNPm9-3" target="fECDeBfF2wD0injgNPm9-43" edge="1">
          <mxGeometry relative="1" as="geometry" />
        </mxCell>
        <mxCell id="fECDeBfF2wD0injgNPm9-51" style="edgeStyle=orthogonalEdgeStyle;rounded=0;orthogonalLoop=1;jettySize=auto;html=1;exitX=0.75;exitY=0;exitDx=0;exitDy=0;entryX=0;entryY=1;entryDx=0;entryDy=0;endArrow=none;startFill=0;" parent="1" source="fECDeBfF2wD0injgNPm9-3" target="fECDeBfF2wD0injgNPm9-45" edge="1">
          <mxGeometry relative="1" as="geometry" />
        </mxCell>
        <mxCell id="fECDeBfF2wD0injgNPm9-52" style="edgeStyle=orthogonalEdgeStyle;rounded=0;orthogonalLoop=1;jettySize=auto;html=1;exitX=1;exitY=0.75;exitDx=0;exitDy=0;entryX=0;entryY=0.5;entryDx=0;entryDy=0;endArrow=none;startFill=0;fillColor=#d5e8d4;strokeColor=light-dark(#0c1c03, #446e2c);" parent="1" source="fECDeBfF2wD0injgNPm9-3" target="fECDeBfF2wD0injgNPm9-46" edge="1">
          <mxGeometry relative="1" as="geometry" />
        </mxCell>
        <mxCell id="fECDeBfF2wD0injgNPm9-53" style="edgeStyle=orthogonalEdgeStyle;rounded=0;orthogonalLoop=1;jettySize=auto;html=1;exitX=0.75;exitY=1;exitDx=0;exitDy=0;entryX=0;entryY=0;entryDx=0;entryDy=0;strokeWidth=1;endArrow=none;startFill=0;" parent="1" source="fECDeBfF2wD0injgNPm9-3" target="fECDeBfF2wD0injgNPm9-47" edge="1">
          <mxGeometry relative="1" as="geometry" />
        </mxCell>
        <mxCell id="fECDeBfF2wD0injgNPm9-54" style="edgeStyle=orthogonalEdgeStyle;rounded=0;orthogonalLoop=1;jettySize=auto;html=1;exitX=0.25;exitY=1;exitDx=0;exitDy=0;entryX=0.5;entryY=0;entryDx=0;entryDy=0;endArrow=none;startFill=0;" parent="1" source="fECDeBfF2wD0injgNPm9-3" target="fECDeBfF2wD0injgNPm9-48" edge="1">
          <mxGeometry relative="1" as="geometry" />
        </mxCell>
        <mxCell id="fECDeBfF2wD0injgNPm9-101" style="edgeStyle=orthogonalEdgeStyle;rounded=0;orthogonalLoop=1;jettySize=auto;html=1;exitX=0;exitY=0.5;exitDx=0;exitDy=0;entryX=1;entryY=1;entryDx=0;entryDy=0;" parent="1" source="fECDeBfF2wD0injgNPm9-3" target="fECDeBfF2wD0injgNPm9-100" edge="1">
          <mxGeometry relative="1" as="geometry" />
        </mxCell>
        <mxCell id="fECDeBfF2wD0injgNPm9-3" value="Products" style="rounded=0;whiteSpace=wrap;html=1;" parent="1" vertex="1">
          <mxGeometry x="-300" y="550" width="120" height="60" as="geometry" />
        </mxCell>
        <mxCell id="fECDeBfF2wD0injgNPm9-61" style="edgeStyle=orthogonalEdgeStyle;rounded=0;orthogonalLoop=1;jettySize=auto;html=1;exitX=0;exitY=0.5;exitDx=0;exitDy=0;" parent="1" source="fECDeBfF2wD0injgNPm9-4" edge="1">
          <mxGeometry relative="1" as="geometry">
            <mxPoint x="430" y="640" as="targetPoint" />
          </mxGeometry>
        </mxCell>
        <mxCell id="fECDeBfF2wD0injgNPm9-64" style="edgeStyle=orthogonalEdgeStyle;rounded=0;orthogonalLoop=1;jettySize=auto;html=1;exitX=0.75;exitY=0;exitDx=0;exitDy=0;entryX=0;entryY=1;entryDx=0;entryDy=0;endArrow=none;startFill=0;" parent="1" source="fECDeBfF2wD0injgNPm9-4" target="fECDeBfF2wD0injgNPm9-58" edge="1">
          <mxGeometry relative="1" as="geometry" />
        </mxCell>
        <mxCell id="fECDeBfF2wD0injgNPm9-65" style="edgeStyle=orthogonalEdgeStyle;rounded=0;orthogonalLoop=1;jettySize=auto;html=1;exitX=1;exitY=0.5;exitDx=0;exitDy=0;entryX=0;entryY=1;entryDx=0;entryDy=0;endArrow=none;startFill=0;" parent="1" source="fECDeBfF2wD0injgNPm9-4" target="fECDeBfF2wD0injgNPm9-57" edge="1">
          <mxGeometry relative="1" as="geometry" />
        </mxCell>
        <mxCell id="fECDeBfF2wD0injgNPm9-69" style="edgeStyle=orthogonalEdgeStyle;rounded=0;orthogonalLoop=1;jettySize=auto;html=1;exitX=0;exitY=0;exitDx=0;exitDy=0;entryX=1;entryY=1;entryDx=0;entryDy=0;endArrow=none;startFill=0;" parent="1" source="fECDeBfF2wD0injgNPm9-4" target="fECDeBfF2wD0injgNPm9-59" edge="1">
          <mxGeometry relative="1" as="geometry" />
        </mxCell>
        <mxCell id="fECDeBfF2wD0injgNPm9-74" style="edgeStyle=orthogonalEdgeStyle;rounded=0;orthogonalLoop=1;jettySize=auto;html=1;exitX=0.75;exitY=1;exitDx=0;exitDy=0;endArrow=none;startFill=0;" parent="1" source="fECDeBfF2wD0injgNPm9-4" target="fECDeBfF2wD0injgNPm9-72" edge="1">
          <mxGeometry relative="1" as="geometry" />
        </mxCell>
        <mxCell id="fECDeBfF2wD0injgNPm9-91" value="1" style="edgeStyle=orthogonalEdgeStyle;rounded=0;orthogonalLoop=1;jettySize=auto;html=1;exitX=0.5;exitY=1;exitDx=0;exitDy=0;endArrow=none;startFill=0;" parent="1" source="fECDeBfF2wD0injgNPm9-4" target="fECDeBfF2wD0injgNPm9-90" edge="1">
          <mxGeometry relative="1" as="geometry" />
        </mxCell>
        <mxCell id="fECDeBfF2wD0injgNPm9-94" value="1" style="edgeStyle=orthogonalEdgeStyle;rounded=0;orthogonalLoop=1;jettySize=auto;html=1;exitX=0;exitY=1;exitDx=0;exitDy=0;entryX=1;entryY=0.5;entryDx=0;entryDy=0;" parent="1" source="fECDeBfF2wD0injgNPm9-4" target="fECDeBfF2wD0injgNPm9-93" edge="1">
          <mxGeometry relative="1" as="geometry" />
        </mxCell>
        <mxCell id="fECDeBfF2wD0injgNPm9-4" value="Orders" style="rounded=0;whiteSpace=wrap;html=1;" parent="1" vertex="1">
          <mxGeometry x="540" y="640" width="120" height="60" as="geometry" />
        </mxCell>
        <mxCell id="fECDeBfF2wD0injgNPm9-80" style="edgeStyle=orthogonalEdgeStyle;rounded=0;orthogonalLoop=1;jettySize=auto;html=1;exitX=0;exitY=0.25;exitDx=0;exitDy=0;entryX=1;entryY=1;entryDx=0;entryDy=0;endArrow=none;startFill=0;fillColor=#d5e8d4;strokeColor=light-dark(#242423, #446e2c);" parent="1" source="fECDeBfF2wD0injgNPm9-5" target="fECDeBfF2wD0injgNPm9-79" edge="1">
          <mxGeometry relative="1" as="geometry">
            <Array as="points">
              <mxPoint x="-60" y="875" />
              <mxPoint x="-60" y="884" />
            </Array>
          </mxGeometry>
        </mxCell>
        <mxCell id="fECDeBfF2wD0injgNPm9-81" style="edgeStyle=orthogonalEdgeStyle;rounded=0;orthogonalLoop=1;jettySize=auto;html=1;exitX=1;exitY=0.25;exitDx=0;exitDy=0;entryX=0;entryY=0;entryDx=0;entryDy=0;endArrow=none;startFill=0;fillColor=#d5e8d4;strokeColor=light-dark(#171816, #446e2c);" parent="1" source="fECDeBfF2wD0injgNPm9-5" target="fECDeBfF2wD0injgNPm9-76" edge="1">
          <mxGeometry relative="1" as="geometry" />
        </mxCell>
        <mxCell id="fECDeBfF2wD0injgNPm9-5" value="Payments" style="rounded=0;whiteSpace=wrap;html=1;" parent="1" vertex="1">
          <mxGeometry x="-25" y="860" width="120" height="60" as="geometry" />
        </mxCell>
        <mxCell id="fECDeBfF2wD0injgNPm9-12" value="phone_no" style="ellipse;shape=doubleEllipse;margin=3;whiteSpace=wrap;html=1;align=center;" parent="1" vertex="1">
          <mxGeometry x="620" y="170" width="100" height="40" as="geometry" />
        </mxCell>
        <mxCell id="fECDeBfF2wD0injgNPm9-13" value="&lt;u&gt;cust_id&lt;/u&gt;" style="ellipse;whiteSpace=wrap;html=1;align=center;" parent="1" vertex="1">
          <mxGeometry x="200" y="60" width="100" height="40" as="geometry" />
        </mxCell>
        <mxCell id="fECDeBfF2wD0injgNPm9-14" value="name" style="ellipse;whiteSpace=wrap;html=1;align=center;" parent="1" vertex="1">
          <mxGeometry x="330" y="20" width="100" height="40" as="geometry" />
        </mxCell>
        <mxCell id="fECDeBfF2wD0injgNPm9-28" style="edgeStyle=orthogonalEdgeStyle;rounded=0;orthogonalLoop=1;jettySize=auto;html=1;exitX=0;exitY=0.25;exitDx=0;exitDy=0;endArrow=none;startFill=0;" parent="1" source="fECDeBfF2wD0injgNPm9-16" target="fECDeBfF2wD0injgNPm9-13" edge="1">
          <mxGeometry relative="1" as="geometry" />
        </mxCell>
        <mxCell id="fECDeBfF2wD0injgNPm9-29" style="edgeStyle=orthogonalEdgeStyle;rounded=0;orthogonalLoop=1;jettySize=auto;html=1;exitX=0.5;exitY=0;exitDx=0;exitDy=0;endArrow=none;startFill=0;" parent="1" source="fECDeBfF2wD0injgNPm9-16" target="fECDeBfF2wD0injgNPm9-14" edge="1">
          <mxGeometry relative="1" as="geometry" />
        </mxCell>
        <mxCell id="fECDeBfF2wD0injgNPm9-30" style="edgeStyle=orthogonalEdgeStyle;rounded=0;orthogonalLoop=1;jettySize=auto;html=1;exitX=1;exitY=0;exitDx=0;exitDy=0;entryX=0;entryY=1;entryDx=0;entryDy=0;endArrow=none;startFill=0;" parent="1" source="fECDeBfF2wD0injgNPm9-16" target="fECDeBfF2wD0injgNPm9-27" edge="1">
          <mxGeometry relative="1" as="geometry" />
        </mxCell>
        <mxCell id="fECDeBfF2wD0injgNPm9-32" style="edgeStyle=orthogonalEdgeStyle;rounded=0;orthogonalLoop=1;jettySize=auto;html=1;exitX=1;exitY=0.75;exitDx=0;exitDy=0;entryX=0;entryY=0;entryDx=0;entryDy=0;endArrow=none;startFill=0;" parent="1" source="fECDeBfF2wD0injgNPm9-16" target="fECDeBfF2wD0injgNPm9-12" edge="1">
          <mxGeometry relative="1" as="geometry" />
        </mxCell>
        <mxCell id="fECDeBfF2wD0injgNPm9-86" value="M" style="edgeStyle=orthogonalEdgeStyle;rounded=0;orthogonalLoop=1;jettySize=auto;html=1;exitX=0;exitY=0.75;exitDx=0;exitDy=0;entryX=0.5;entryY=0;entryDx=0;entryDy=0;endArrow=none;startFill=0;" parent="1" source="fECDeBfF2wD0injgNPm9-16" target="fECDeBfF2wD0injgNPm9-85" edge="1">
          <mxGeometry relative="1" as="geometry" />
        </mxCell>
        <mxCell id="fECDeBfF2wD0injgNPm9-16" value="customer" style="rounded=1;arcSize=0;whiteSpace=wrap;html=1;align=center;" parent="1" vertex="1">
          <mxGeometry x="400" y="140" width="100" height="40" as="geometry" />
        </mxCell>
        <mxCell id="fECDeBfF2wD0injgNPm9-22" style="edgeStyle=orthogonalEdgeStyle;rounded=0;orthogonalLoop=1;jettySize=auto;html=1;exitX=1;exitY=0.5;exitDx=0;exitDy=0;endArrow=none;startFill=0;" parent="1" source="fECDeBfF2wD0injgNPm9-17" target="fECDeBfF2wD0injgNPm9-18" edge="1">
          <mxGeometry relative="1" as="geometry" />
        </mxCell>
        <mxCell id="fECDeBfF2wD0injgNPm9-23" style="edgeStyle=orthogonalEdgeStyle;rounded=0;orthogonalLoop=1;jettySize=auto;html=1;exitX=0.5;exitY=1;exitDx=0;exitDy=0;entryX=0.5;entryY=0;entryDx=0;entryDy=0;endArrow=none;startFill=0;" parent="1" source="fECDeBfF2wD0injgNPm9-17" target="fECDeBfF2wD0injgNPm9-19" edge="1">
          <mxGeometry relative="1" as="geometry" />
        </mxCell>
        <mxCell id="fECDeBfF2wD0injgNPm9-24" style="edgeStyle=orthogonalEdgeStyle;rounded=0;orthogonalLoop=1;jettySize=auto;html=1;exitX=0;exitY=1;exitDx=0;exitDy=0;entryX=1;entryY=0;entryDx=0;entryDy=0;endArrow=none;startFill=0;" parent="1" source="fECDeBfF2wD0injgNPm9-17" target="fECDeBfF2wD0injgNPm9-20" edge="1">
          <mxGeometry relative="1" as="geometry" />
        </mxCell>
        <mxCell id="fECDeBfF2wD0injgNPm9-17" value="address" style="ellipse;whiteSpace=wrap;html=1;align=center;" parent="1" vertex="1">
          <mxGeometry x="430" y="250" width="100" height="40" as="geometry" />
        </mxCell>
        <mxCell id="fECDeBfF2wD0injgNPm9-18" value="zipcode" style="ellipse;whiteSpace=wrap;html=1;align=center;" parent="1" vertex="1">
          <mxGeometry x="630" y="250" width="100" height="40" as="geometry" />
        </mxCell>
        <mxCell id="fECDeBfF2wD0injgNPm9-19" value="state" style="ellipse;whiteSpace=wrap;html=1;align=center;" parent="1" vertex="1">
          <mxGeometry x="460" y="360" width="100" height="40" as="geometry" />
        </mxCell>
        <mxCell id="fECDeBfF2wD0injgNPm9-20" value="city" style="ellipse;whiteSpace=wrap;html=1;align=center;" parent="1" vertex="1">
          <mxGeometry x="270" y="287.8" width="100" height="40" as="geometry" />
        </mxCell>
        <mxCell id="fECDeBfF2wD0injgNPm9-27" value="email" style="ellipse;whiteSpace=wrap;html=1;align=center;" parent="1" vertex="1">
          <mxGeometry x="480" y="30" width="100" height="40" as="geometry" />
        </mxCell>
        <mxCell id="fECDeBfF2wD0injgNPm9-33" style="edgeStyle=orthogonalEdgeStyle;rounded=0;orthogonalLoop=1;jettySize=auto;html=1;exitX=0.75;exitY=1;exitDx=0;exitDy=0;entryX=0.037;entryY=0.258;entryDx=0;entryDy=0;entryPerimeter=0;endArrow=none;startFill=0;" parent="1" source="fECDeBfF2wD0injgNPm9-16" target="fECDeBfF2wD0injgNPm9-17" edge="1">
          <mxGeometry relative="1" as="geometry" />
        </mxCell>
        <mxCell id="fECDeBfF2wD0injgNPm9-34" value="email" style="ellipse;whiteSpace=wrap;html=1;align=center;" parent="1" vertex="1">
          <mxGeometry x="-110" y="100" width="100" height="40" as="geometry" />
        </mxCell>
        <mxCell id="fECDeBfF2wD0injgNPm9-35" value="name" style="ellipse;whiteSpace=wrap;html=1;align=center;" parent="1" vertex="1">
          <mxGeometry x="-190" y="40" width="100" height="40" as="geometry" />
        </mxCell>
        <mxCell id="fECDeBfF2wD0injgNPm9-36" value="&lt;u&gt;sell_id&lt;/u&gt;" style="ellipse;whiteSpace=wrap;html=1;align=center;" parent="1" vertex="1">
          <mxGeometry x="-310" y="70" width="100" height="40" as="geometry" />
        </mxCell>
        <mxCell id="fECDeBfF2wD0injgNPm9-37" value="phone_no" style="ellipse;shape=doubleEllipse;margin=3;whiteSpace=wrap;html=1;align=center;" parent="1" vertex="1">
          <mxGeometry x="-80" y="200" width="100" height="40" as="geometry" />
        </mxCell>
        <mxCell id="fECDeBfF2wD0injgNPm9-41" style="edgeStyle=orthogonalEdgeStyle;rounded=0;orthogonalLoop=1;jettySize=auto;html=1;exitX=0.75;exitY=0;exitDx=0;exitDy=0;entryX=0.304;entryY=0.972;entryDx=0;entryDy=0;entryPerimeter=0;endArrow=none;startFill=0;" parent="1" source="fECDeBfF2wD0injgNPm9-2" target="fECDeBfF2wD0injgNPm9-34" edge="1">
          <mxGeometry relative="1" as="geometry" />
        </mxCell>
        <mxCell id="fECDeBfF2wD0injgNPm9-43" value="&lt;u&gt;prod_id&lt;span style=&quot;color: rgba(0, 0, 0, 0); font-family: monospace; font-size: 0px; text-align: start; text-wrap-mode: nowrap;&quot;&gt;%3CmxGraphModel%3E%3Croot%3E%3CmxCell%20id%3D%220%22%2F%3E%3CmxCell%20id%3D%221%22%20parent%3D%220%22%2F%3E%3CmxCell%20id%3D%222%22%20value%3D%22sell_id%22%20style%3D%22ellipse%3BwhiteSpace%3Dwrap%3Bhtml%3D1%3Balign%3Dcenter%3B%22%20vertex%3D%221%22%20parent%3D%221%22%3E%3CmxGeometry%20x%3D%22-290%22%20y%3D%2280%22%20width%3D%22100%22%20height%3D%2240%22%20as%3D%22geometry%22%2F%3E%3C%2FmxCell%3E%3C%2Froot%3E%3C%2FmxGraphModel%3E&lt;/span&gt;&lt;/u&gt;" style="ellipse;whiteSpace=wrap;html=1;align=center;fontStyle=1" parent="1" vertex="1">
          <mxGeometry x="-450" y="470" width="100" height="40" as="geometry" />
        </mxCell>
        <mxCell id="fECDeBfF2wD0injgNPm9-44" value="name&lt;span style=&quot;color: rgba(0, 0, 0, 0); font-family: monospace; font-size: 0px; text-align: start; text-wrap-mode: nowrap;&quot;&gt;%3CmxGraphModel%3E%3Croot%3E%3CmxCell%20id%3D%220%22%2F%3E%3CmxCell%20id%3D%221%22%20parent%3D%220%22%2F%3E%3CmxCell%20id%3D%222%22%20value%3D%22prod_id%26lt%3Bspan%20style%3D%26quot%3Bcolor%3A%20rgba(0%2C%200%2C%200%2C%200)%3B%20font-family%3A%20monospace%3B%20font-size%3A%200px%3B%20text-align%3A%20start%3B%20text-wrap-mode%3A%20nowrap%3B%26quot%3B%26gt%3B%253CmxGraphModel%253E%253Croot%253E%253CmxCell%2520id%253D%25220%2522%252F%253E%253CmxCell%2520id%253D%25221%2522%2520parent%253D%25220%2522%252F%253E%253CmxCell%2520id%253D%25222%2522%2520value%253D%2522sell_id%2522%2520style%253D%2522ellipse%253BwhiteSpace%253Dwrap%253Bhtml%253D1%253Balign%253Dcenter%253B%2522%2520vertex%253D%25221%2522%2520parent%253D%25221%2522%253E%253CmxGeometry%2520x%253D%2522-290%2522%2520y%253D%252280%2522%2520width%253D%2522100%2522%2520height%253D%252240%2522%2520as%253D%2522geometry%2522%252F%253E%253C%252FmxCell%253E%253C%252Froot%253E%253C%252FmxGraphModel%253E%26lt%3B%2Fspan%26gt%3B%22%20style%3D%22ellipse%3BwhiteSpace%3Dwrap%3Bhtml%3D1%3Balign%3Dcenter%3B%22%20vertex%3D%221%22%20parent%3D%221%22%3E%3CmxGeometry%20x%3D%22-425%22%20y%3D%22340%22%20width%3D%22100%22%20height%3D%2240%22%20as%3D%22geometry%22%2F%3E%3C%2FmxCell%3E%3C%2Froot%3E%3C%2FmxGraphModel%3E&lt;/span&gt;" style="ellipse;whiteSpace=wrap;html=1;align=center;" parent="1" vertex="1">
          <mxGeometry x="-300" y="410" width="100" height="40" as="geometry" />
        </mxCell>
        <mxCell id="fECDeBfF2wD0injgNPm9-45" value="description" style="ellipse;whiteSpace=wrap;html=1;align=center;" parent="1" vertex="1">
          <mxGeometry x="-120" y="440" width="100" height="40" as="geometry" />
        </mxCell>
        <mxCell id="fECDeBfF2wD0injgNPm9-46" value="quantity" style="ellipse;whiteSpace=wrap;html=1;align=center;" parent="1" vertex="1">
          <mxGeometry x="-30" y="520" width="100" height="40" as="geometry" />
        </mxCell>
        <mxCell id="fECDeBfF2wD0injgNPm9-47" value="price" style="ellipse;whiteSpace=wrap;html=1;align=center;" parent="1" vertex="1">
          <mxGeometry x="-10" y="630" width="100" height="40" as="geometry" />
        </mxCell>
        <mxCell id="fECDeBfF2wD0injgNPm9-48" value="size" style="ellipse;whiteSpace=wrap;html=1;align=center;" parent="1" vertex="1">
          <mxGeometry x="-430" y="760" width="100" height="40" as="geometry" />
        </mxCell>
        <mxCell id="fECDeBfF2wD0injgNPm9-50" style="edgeStyle=orthogonalEdgeStyle;rounded=0;orthogonalLoop=1;jettySize=auto;html=1;exitX=0.5;exitY=0;exitDx=0;exitDy=0;entryX=0.412;entryY=1.015;entryDx=0;entryDy=0;entryPerimeter=0;endArrow=none;startFill=0;fillColor=#d5e8d4;strokeColor=light-dark(#21231f, #446e2c);" parent="1" source="fECDeBfF2wD0injgNPm9-3" target="fECDeBfF2wD0injgNPm9-44" edge="1">
          <mxGeometry relative="1" as="geometry" />
        </mxCell>
        <mxCell id="fECDeBfF2wD0injgNPm9-57" value="order_date" style="ellipse;whiteSpace=wrap;html=1;align=center;" parent="1" vertex="1">
          <mxGeometry x="720" y="560" width="100" height="40" as="geometry" />
        </mxCell>
        <mxCell id="fECDeBfF2wD0injgNPm9-58" value="prod_id" style="ellipse;whiteSpace=wrap;html=1;align=center;" parent="1" vertex="1">
          <mxGeometry x="550" y="520" width="100" height="40" as="geometry" />
        </mxCell>
        <mxCell id="fECDeBfF2wD0injgNPm9-59" value="cust_id" style="ellipse;whiteSpace=wrap;html=1;align=center;" parent="1" vertex="1">
          <mxGeometry x="410" y="540" width="100" height="40" as="geometry" />
        </mxCell>
        <mxCell id="fECDeBfF2wD0injgNPm9-60" value="&lt;u&gt;order_id&lt;/u&gt;" style="ellipse;whiteSpace=wrap;html=1;align=center;" parent="1" vertex="1">
          <mxGeometry x="340" y="620" width="100" height="40" as="geometry" />
        </mxCell>
        <mxCell id="fECDeBfF2wD0injgNPm9-72" value="payment_id" style="ellipse;whiteSpace=wrap;html=1;align=center;" parent="1" vertex="1">
          <mxGeometry x="750" y="720" width="100" height="40" as="geometry" />
        </mxCell>
        <mxCell id="fECDeBfF2wD0injgNPm9-76" value="date" style="ellipse;whiteSpace=wrap;html=1;align=center;" parent="1" vertex="1">
          <mxGeometry x="160" y="910" width="100" height="40" as="geometry" />
        </mxCell>
        <mxCell id="fECDeBfF2wD0injgNPm9-77" value="type" style="ellipse;whiteSpace=wrap;html=1;align=center;" parent="1" vertex="1">
          <mxGeometry x="65" y="970" width="100" height="40" as="geometry" />
        </mxCell>
        <mxCell id="fECDeBfF2wD0injgNPm9-78" value="source" style="ellipse;whiteSpace=wrap;html=1;align=center;" parent="1" vertex="1">
          <mxGeometry x="-110" y="980" width="100" height="40" as="geometry" />
        </mxCell>
        <mxCell id="fECDeBfF2wD0injgNPm9-79" value="&lt;u&gt;payment_id&lt;/u&gt;" style="ellipse;whiteSpace=wrap;html=1;align=center;" parent="1" vertex="1">
          <mxGeometry x="-175" y="850" width="100" height="40" as="geometry" />
        </mxCell>
        <mxCell id="fECDeBfF2wD0injgNPm9-82" style="edgeStyle=orthogonalEdgeStyle;rounded=0;orthogonalLoop=1;jettySize=auto;html=1;exitX=0.25;exitY=1;exitDx=0;exitDy=0;entryX=0.615;entryY=0.217;entryDx=0;entryDy=0;entryPerimeter=0;endArrow=none;startFill=0;fillColor=#d5e8d4;strokeColor=light-dark(#0f100f, #446e2c);" parent="1" source="fECDeBfF2wD0injgNPm9-5" target="fECDeBfF2wD0injgNPm9-78" edge="1">
          <mxGeometry relative="1" as="geometry" />
        </mxCell>
        <mxCell id="fECDeBfF2wD0injgNPm9-83" style="edgeStyle=orthogonalEdgeStyle;rounded=0;orthogonalLoop=1;jettySize=auto;html=1;exitX=0.75;exitY=1;exitDx=0;exitDy=0;entryX=0.248;entryY=0.154;entryDx=0;entryDy=0;entryPerimeter=0;endArrow=none;startFill=0;" parent="1" source="fECDeBfF2wD0injgNPm9-5" target="fECDeBfF2wD0injgNPm9-77" edge="1">
          <mxGeometry relative="1" as="geometry" />
        </mxCell>
        <mxCell id="fECDeBfF2wD0injgNPm9-87" value="M" style="edgeStyle=orthogonalEdgeStyle;rounded=0;orthogonalLoop=1;jettySize=auto;html=1;exitX=0.5;exitY=1;exitDx=0;exitDy=0;entryX=0.25;entryY=1;entryDx=0;entryDy=0;endArrow=none;startFill=0;" parent="1" source="fECDeBfF2wD0injgNPm9-85" target="fECDeBfF2wD0injgNPm9-4" edge="1">
          <mxGeometry relative="1" as="geometry" />
        </mxCell>
        <mxCell id="fECDeBfF2wD0injgNPm9-85" value="Relationship" style="shape=rhombus;perimeter=rhombusPerimeter;whiteSpace=wrap;html=1;align=center;" parent="1" vertex="1">
          <mxGeometry x="140" y="380" width="120" height="60" as="geometry" />
        </mxCell>
        <mxCell id="fECDeBfF2wD0injgNPm9-92" value="1" style="edgeStyle=orthogonalEdgeStyle;rounded=0;orthogonalLoop=1;jettySize=auto;html=1;exitX=0;exitY=0.5;exitDx=0;exitDy=0;entryX=1;entryY=0;entryDx=0;entryDy=0;strokeWidth=1;endArrow=none;startFill=0;" parent="1" source="fECDeBfF2wD0injgNPm9-90" target="fECDeBfF2wD0injgNPm9-5" edge="1">
          <mxGeometry relative="1" as="geometry" />
        </mxCell>
        <mxCell id="fECDeBfF2wD0injgNPm9-90" value="payment" style="shape=rhombus;perimeter=rhombusPerimeter;whiteSpace=wrap;html=1;align=center;" parent="1" vertex="1">
          <mxGeometry x="370" y="860" width="120" height="60" as="geometry" />
        </mxCell>
        <mxCell id="fECDeBfF2wD0injgNPm9-96" value="M" style="edgeStyle=orthogonalEdgeStyle;rounded=0;orthogonalLoop=1;jettySize=auto;html=1;exitX=0;exitY=0.5;exitDx=0;exitDy=0;entryX=0.5;entryY=1;entryDx=0;entryDy=0;" parent="1" source="fECDeBfF2wD0injgNPm9-93" target="fECDeBfF2wD0injgNPm9-3" edge="1">
          <mxGeometry relative="1" as="geometry" />
        </mxCell>
        <mxCell id="fECDeBfF2wD0injgNPm9-93" value="orders product" style="shape=rhombus;perimeter=rhombusPerimeter;whiteSpace=wrap;html=1;align=center;" parent="1" vertex="1">
          <mxGeometry x="30" y="740" width="120" height="60" as="geometry" />
        </mxCell>
        <mxCell id="fECDeBfF2wD0injgNPm9-97" value="seller" style="shape=rhombus;perimeter=rhombusPerimeter;whiteSpace=wrap;html=1;align=center;" parent="1" vertex="1">
          <mxGeometry x="-240" y="320" width="120" height="60" as="geometry" />
        </mxCell>
        <mxCell id="fECDeBfF2wD0injgNPm9-99" value="M" style="edgeStyle=orthogonalEdgeStyle;rounded=0;orthogonalLoop=1;jettySize=auto;html=1;exitX=0.5;exitY=1;exitDx=0;exitDy=0;" parent="1" source="fECDeBfF2wD0injgNPm9-97" edge="1">
          <mxGeometry relative="1" as="geometry">
            <mxPoint x="-220" y="550" as="targetPoint" />
          </mxGeometry>
        </mxCell>
        <mxCell id="fECDeBfF2wD0injgNPm9-100" value="sell_id" style="ellipse;whiteSpace=wrap;html=1;align=center;" parent="1" vertex="1">
          <mxGeometry x="-470" y="580" width="100" height="40" as="geometry" />
        </mxCell>
      </root>
    </mxGraphModel>
  </diagram>
</mxfile>
